<svg width="81" height="81" viewBox="0 0 81 81" fill="none" xmlns="http://www.w3.org/2000/svg">
<rect x="0.879883" y="0.189941" width="80" height="80" rx="40" fill="#F5E6F3" fill-opacity="0.5"/>
<g clip-path="url(#clip0_659_930)">
<path d="M46.3486 23.7837H35.4111C33.5989 23.7837 32.1299 25.2528 32.1299 27.0649V53.3149C32.1299 55.1271 33.5989 56.5962 35.4111 56.5962H46.3486C48.1608 56.5962 49.6299 55.1271 49.6299 53.3149V27.0649C49.6299 25.2528 48.1608 23.7837 46.3486 23.7837Z" stroke="black" stroke-width="2.1875" stroke-linecap="round" stroke-linejoin="round"/>
<path d="M35.4111 23.7837H37.0518C37.1968 23.7837 37.3359 23.8413 37.4385 23.9439C37.541 24.0464 37.5986 24.1855 37.5986 24.3306C37.5986 24.6206 37.7139 24.8988 37.919 25.104C38.1241 25.3091 38.4023 25.4243 38.6924 25.4243H43.0674C43.3575 25.4243 43.6357 25.3091 43.8408 25.104C44.0459 24.8988 44.1611 24.6206 44.1611 24.3306C44.1611 24.1855 44.2187 24.0464 44.3213 23.9439C44.4239 23.8413 44.563 23.7837 44.708 23.7837H46.3486" stroke="black" stroke-width="2.1875" stroke-linecap="round" stroke-linejoin="round"/>
</g>
<defs>
<clipPath id="clip0_659_930">
<rect width="35" height="35" fill="white" transform="translate(23.3799 22.6899)"/>
</clipPath>
</defs>
</svg>
