<svg width="81" height="81" viewBox="0 0 81 81" fill="none" xmlns="http://www.w3.org/2000/svg">
<rect x="0.969727" y="0.379883" width="80" height="80" rx="40" fill="#F5E6F3" fill-opacity="0.5"/>
<path d="M40.9697 33.8174C42.0635 29.4998 46.1944 27.2952 55.1885 27.2549C55.3323 27.2543 55.4747 27.2823 55.6077 27.337C55.7406 27.3918 55.8614 27.4724 55.9631 27.574C56.0648 27.6757 56.1453 27.7965 56.2001 27.9294C56.2549 28.0624 56.2828 28.2049 56.2822 28.3486V48.0361C56.2822 48.3262 56.167 48.6044 55.9619 48.8095C55.7568 49.0147 55.4786 49.1299 55.1885 49.1299C46.4385 49.1299 43.0581 50.8942 40.9697 53.5049C38.8937 50.9072 35.501 49.1299 26.751 49.1299C26.0756 49.1299 25.6572 48.5796 25.6572 47.9042V28.3486C25.6567 28.2049 25.6846 28.0624 25.7394 27.9294C25.7942 27.7965 25.8747 27.6757 25.9764 27.574C26.078 27.4724 26.1988 27.3918 26.3318 27.337C26.4647 27.2823 26.6072 27.2543 26.751 27.2549C35.745 27.2952 39.876 29.4998 40.9697 33.8174Z" stroke="black" stroke-width="2.1875" stroke-linecap="round" stroke-linejoin="round"/>
<path d="M40.9697 33.8174V53.5049" stroke="black" stroke-width="2.1875" stroke-linecap="round" stroke-linejoin="round"/>
</svg>
