<svg width="81" height="81" viewBox="0 0 81 81" fill="none" xmlns="http://www.w3.org/2000/svg">
<rect x="0.879883" y="0.379883" width="80" height="80" rx="40" fill="#F5E6F3" fill-opacity="0.5"/>
<path d="M44.9315 25.1357L29.9424 43.6611H38.6924L36.5384 55.503C36.5343 55.5263 36.5353 55.5501 36.5414 55.5729C36.5476 55.5957 36.5586 55.6168 36.5738 55.6349C36.589 55.653 36.6079 55.6675 36.6293 55.6774C36.6507 55.6873 36.6741 55.6924 36.6977 55.6924C36.7228 55.6924 36.7475 55.6865 36.7699 55.6752C36.7924 55.6639 36.8119 55.6476 36.8269 55.6274L51.8174 37.0986H43.0674L45.2316 25.2554C45.2346 25.2318 45.2324 25.2078 45.2253 25.1851C45.2183 25.1624 45.2065 25.1415 45.1907 25.1237C45.1749 25.1059 45.1555 25.0917 45.1338 25.082C45.1121 25.0723 45.0886 25.0673 45.0648 25.0674C45.0388 25.0675 45.0132 25.0737 44.99 25.0856C44.9668 25.0975 44.9468 25.1147 44.9315 25.1357Z" stroke="black" stroke-width="2.1875" stroke-linecap="round" stroke-linejoin="round"/>
</svg>
