<svg width="81" height="81" viewBox="0 0 81 81" fill="none" xmlns="http://www.w3.org/2000/svg">
<rect x="0.969727" y="0.189941" width="80" height="80" rx="40" fill="#F5E6F3" fill-opacity="0.5"/>
<path d="M46.1934 43.9216C44.7544 42.6426 42.896 41.936 40.9707 41.936C39.0454 41.936 37.1871 42.6426 35.748 43.9216" stroke="black" stroke-width="2.1875" stroke-linecap="round" stroke-linejoin="round"/>
<path d="M50.3666 39.7484C47.818 37.3653 44.4591 36.0396 40.9699 36.0396C37.4807 36.0396 34.1218 37.3653 31.5732 39.7484" stroke="black" stroke-width="2.1875" stroke-linecap="round" stroke-linejoin="round"/>
<path d="M54.076 35.1388C50.4689 31.9209 45.804 30.1426 40.9701 30.1426C36.1363 30.1426 31.4714 31.9209 27.8643 35.1388" stroke="black" stroke-width="2.1875" stroke-linecap="round" stroke-linejoin="round"/>
<path d="M40.9697 51.1274C40.5371 51.1274 40.1142 50.9991 39.7544 50.7588C39.3947 50.5184 39.1143 50.1768 38.9487 49.7771C38.7832 49.3774 38.7399 48.9375 38.8243 48.5132C38.9087 48.0888 39.117 47.6991 39.4229 47.3931C39.7289 47.0872 40.1186 46.8789 40.543 46.7945C40.9673 46.7101 41.4071 46.7534 41.8068 46.919C42.2066 47.0845 42.5482 47.3649 42.7886 47.7246C43.0289 48.0844 43.1572 48.5073 43.1572 48.9399C43.1572 49.5201 42.9268 50.0765 42.5165 50.4867C42.1063 50.897 41.5499 51.1274 40.9697 51.1274Z" fill="#B81E94"/>
</svg>
