<svg width="528" height="356" viewBox="0 0 528 356" fill="none" xmlns="http://www.w3.org/2000/svg">
<g clip-path="url(#clip0_659_982)">
<g clip-path="url(#clip1_659_982)">
<g clip-path="url(#clip2_659_982)">
<mask id="mask0_659_982" style="mask-type:luminance" maskUnits="userSpaceOnUse" x="0" y="0" width="528" height="356">
<path d="M0 0.560547H528V355.561H0V0.560547Z" fill="white"/>
</mask>
<g mask="url(#mask0_659_982)">
<path d="M93.4198 300.236C93.4636 300.277 103.357 309.541 113.998 314.103C124.663 318.674 127.863 324.846 127.863 324.846L65.4678 324.844L74.2471 300.236H93.4198Z" fill="url(#paint0_linear_659_982)"/>
<path d="M53.0276 300.212C54.1074 301.216 63.498 309.803 73.5303 314.103C84.1951 318.675 87.395 324.847 87.395 324.847L25 324.845L33.7553 300.212H53.0276Z" fill="url(#paint1_linear_659_982)"/>
<path d="M88.5219 148.232C93.4447 151.713 100.653 152.614 100.653 152.614L113.507 151.245L115.205 173.242C115.726 185.971 117.73 201.798 115.356 216.647C112.825 232.473 97.7662 278.114 93.4207 300.236H74.2473C67.7859 286.457 69.0615 274.658 71.6855 254.157C74.8536 229.396 69.6573 236.617 74.9617 213.439C80.2599 190.259 78.8429 194.835 77.1363 160.164C76.5822 148.948 74.9935 147.582 77.4514 140.897" fill="url(#paint2_linear_659_982)"/>
<path d="M106.258 180.495C105.242 194.001 103.187 208.649 99.7586 221.07C96.1043 234.283 62.6669 284.933 53.0289 300.212H33.7559C33.934 295.877 34.0718 278.261 38.2455 266.92C43.0511 253.913 47.0997 257.47 48.0255 246.909C48.964 236.358 52.2615 230.005 58.1504 219.706C64.0188 209.397 72.0398 212.59 66.3474 174.088C63.9955 158.725 66.2512 143.01 72.8278 128.928C73.6221 129.257 74.4807 129.597 75.3917 129.944L75.4666 129.322C75.4666 129.322 77.0475 130.135 79.5145 131.418C80.2884 131.678 81.0905 131.939 81.9286 132.201C81.9647 132.384 82.0064 132.559 82.0459 132.737C92.0026 137.937 109.643 147.291 108.591 147.752C107.132 148.393 106.258 180.495 106.258 180.495Z" fill="#23286B"/>
<path d="M144.149 90.566C144.149 90.566 134.664 105.697 133.928 116.928C133.061 130.151 136.471 136.042 141.133 140.549C147.422 146.63 151.578 150.221 151.578 150.221L134.935 183.31C134.935 183.31 123.747 177.742 120.592 167.011C117.043 154.943 107.043 144.714 106.022 139.825C104.795 133.95 106.329 126.603 106.787 123.497C109.718 103.613 113.951 96.8765 127.198 80.3164" fill="url(#paint3_linear_659_982)"/>
<path d="M142.891 167.488C146.639 169.128 149.59 170.393 150.93 171.039C155.969 173.481 159.554 181.888 166.844 188.044C174.141 194.194 185.56 185.65 185.913 184.344C186.267 183.031 175.902 179.923 175.202 179.154C174.502 178.385 181.112 180.385 184.587 181.575C188.062 182.766 188.96 180.821 188.742 179.195C188.525 177.562 179.493 175.529 174.168 172.923C168.843 170.325 169.618 167.93 175.943 166.379C182.268 164.835 179.439 160.802 179.439 160.802C179.439 160.802 177.14 161.21 168.924 163.774C160.838 166.297 157.866 166.209 147.93 157.461L142.891 167.488Z" fill="#BE6361"/>
<path d="M241.855 237.139C244.597 243.869 260.799 243.371 277.874 236.391C294.824 229.287 306.414 218.195 303.548 211.589C302.925 210.094 301.18 204.236 299.186 203.488C292.829 200.871 280.865 206.853 267.778 212.212C255.689 217.198 241.73 220.438 239.611 227.044C238.365 230.907 241.107 235.269 241.855 237.139Z" fill="#B81F94"/>
<path opacity="0.2" d="M239.611 226.919C238.614 232.154 240.857 234.647 241.854 237.015C242.851 239.507 245.718 241.003 249.706 241.501C250.205 241.626 250.703 241.626 251.202 241.626C253.944 241.875 257.06 241.626 260.425 241.128C260.923 241.128 261.297 241.003 261.796 240.878C265.161 240.255 268.65 239.383 272.389 238.136C272.763 238.012 273.137 237.887 273.636 237.762C275.007 237.264 276.502 236.765 277.873 236.142C279.244 235.519 280.615 234.896 281.986 234.273C282.36 234.148 282.734 233.899 283.108 233.774C286.473 232.154 289.464 230.284 292.206 228.415C292.58 228.166 292.829 227.916 293.203 227.667C295.945 225.673 298.313 223.554 300.058 221.56C300.307 221.186 300.681 220.937 300.93 220.563C303.672 217.198 304.669 213.958 303.547 211.34C302.8 209.72 301.304 203.987 299.185 203.239C297.067 202.491 294.325 202.491 291.084 203.239C290.71 203.364 290.212 203.364 289.838 203.489C283.606 205.109 275.754 208.598 267.778 211.964C258.306 215.827 247.089 219.94 241.73 224.551C241.356 224.801 241.107 225.175 240.733 225.424C240.359 226.047 239.985 226.546 239.611 226.919Z" fill="#23286B"/>
<g opacity="0.2">
<path opacity="0.2" d="M289.34 202.616L289.963 203.613L300.058 221.685C300.308 221.311 300.681 221.062 300.931 220.688L291.209 203.364L290.462 201.993L289.34 202.616Z" fill="#23286B"/>
</g>
<g opacity="0.2">
<path opacity="0.2" d="M281.737 209.969L292.206 228.664C292.58 228.415 292.829 228.166 293.203 227.916L282.859 209.346L281.737 209.969Z" fill="#23286B"/>
</g>
<g opacity="0.2">
<path opacity="0.2" d="M262.542 220.688L272.388 238.386C272.762 238.261 273.136 238.136 273.635 238.012L263.664 220.189L262.542 220.688Z" fill="#23286B"/>
</g>
<g opacity="0.2">
<path opacity="0.2" d="M271.392 215.703L281.861 234.522C282.235 234.397 282.609 234.148 282.983 234.024L272.389 215.204L271.392 215.703Z" fill="#23286B"/>
</g>
<g opacity="0.2">
<path opacity="0.2" d="M250.952 224.177L260.549 241.377C261.047 241.377 261.421 241.252 261.92 241.127L252.074 223.554L250.952 224.177Z" fill="#23286B"/>
</g>
<path d="M239.736 231.281C242.478 238.011 258.556 237.762 275.506 230.658C292.456 223.554 304.046 212.586 301.304 205.856C298.563 199.126 282.485 199.375 265.535 206.479C248.46 213.459 236.994 224.551 239.736 231.281Z" fill="#B81F94"/>
<path opacity="0.2" d="M245.469 228.913C247.463 233.649 259.926 233.026 273.387 227.418C286.847 221.809 296.194 213.584 294.2 208.848C292.206 204.111 279.743 204.735 266.283 210.343C252.822 215.827 243.599 224.177 245.469 228.913Z" fill="white"/>
<path d="M155.982 176.568C151.495 182.301 159.97 196.135 174.552 207.352C189.134 218.569 204.464 223.055 208.951 217.322C209.948 215.951 214.061 211.589 213.811 209.471C212.939 202.616 201.722 195.138 190.63 186.538C180.285 178.437 170.564 168.093 163.709 169.464C159.596 170.461 157.228 174.947 155.982 176.568Z" fill="#B81F94"/>
<path opacity="0.2" d="M163.709 169.589C158.599 171.333 157.602 174.574 155.982 176.568C154.362 178.687 154.487 181.927 155.982 185.666C156.107 186.165 156.356 186.539 156.605 187.037C157.727 189.53 159.472 192.147 161.591 194.764C161.84 195.138 162.089 195.512 162.463 195.761C164.582 198.379 167.199 200.996 170.066 203.613C170.44 203.862 170.689 204.112 171.063 204.486C172.184 205.483 173.306 206.355 174.552 207.352C175.799 208.225 176.92 209.222 178.167 209.969C178.541 210.219 178.915 210.468 179.164 210.717C182.28 212.836 185.395 214.581 188.262 215.952C188.636 216.201 189.01 216.326 189.384 216.45C192.499 217.821 195.491 218.818 198.108 219.317C198.606 219.442 198.98 219.442 199.479 219.566C203.716 220.189 207.081 219.566 208.826 217.323C209.948 215.952 214.061 211.714 213.687 209.471C213.313 207.228 211.818 204.86 209.699 202.492C209.45 202.242 209.076 201.868 208.826 201.494C204.34 196.883 197.36 191.898 190.505 186.539C182.404 180.307 173.306 172.58 166.576 170.212C166.202 170.087 165.704 169.962 165.33 169.838C164.831 169.838 164.208 169.713 163.709 169.589Z" fill="#23286B"/>
<g opacity="0.2">
<path opacity="0.2" d="M209.449 200.622L208.826 201.619L198.108 219.441C198.606 219.566 198.98 219.566 199.479 219.69L209.823 202.616L210.571 201.245L209.449 200.622Z" fill="#23286B"/>
</g>
<g opacity="0.2">
<path opacity="0.2" d="M199.354 197.755L188.386 216.076C188.76 216.325 189.134 216.45 189.508 216.575L200.476 198.378L199.354 197.755Z" fill="#23286B"/>
</g>
<g opacity="0.2">
<path opacity="0.2" d="M180.41 186.414L169.941 203.738C170.315 203.987 170.564 204.237 170.938 204.611L181.407 187.037L180.41 186.414Z" fill="#23286B"/>
</g>
<g opacity="0.2">
<path opacity="0.2" d="M189.26 191.648L178.167 210.094C178.541 210.343 178.915 210.592 179.165 210.841L190.257 192.271L189.26 191.648Z" fill="#23286B"/>
</g>
<g opacity="0.2">
<path opacity="0.2" d="M171.686 178.063L161.591 194.889C161.84 195.263 162.089 195.637 162.463 195.886L172.808 178.562L171.686 178.063Z" fill="#23286B"/>
</g>
<path d="M178.236 202.575C163.706 191.322 155.514 177.567 159.94 171.853C164.365 166.139 179.731 170.63 194.261 181.883C208.791 193.136 216.982 206.89 212.557 212.604C208.132 218.318 192.765 213.828 178.236 202.575Z" fill="#B81F94"/>
<path opacity="0.2" d="M180.137 199.068C168.655 190.175 161.875 179.701 164.994 175.674C168.112 171.647 179.949 175.592 191.431 184.485C202.914 193.378 209.694 203.851 206.575 207.878C203.456 211.905 191.62 207.961 180.137 199.068Z" fill="white"/>
<path d="M216.181 149.772C217.677 157.998 235.998 161.487 256.811 157.748C277.625 154.009 293.329 144.413 291.958 136.187C291.584 134.317 291.085 127.338 289.091 125.967C282.61 121.356 267.654 125.219 251.577 128.086C236.621 130.703 220.294 130.952 216.181 137.807C213.689 142.045 215.683 147.528 216.181 149.772Z" fill="#B81F94"/>
<path opacity="0.2" d="M216.182 137.807C213.689 143.416 215.683 146.905 216.182 149.772C216.68 152.763 219.547 155.131 223.909 156.751C224.407 157.001 225.03 157.125 225.529 157.374C228.52 158.247 232.134 158.87 235.998 159.119C236.497 159.119 236.995 159.119 237.494 159.244C241.357 159.369 245.595 159.244 250.082 158.745C250.58 158.745 251.079 158.621 251.577 158.621C253.322 158.372 254.942 158.122 256.687 157.873C258.432 157.624 260.052 157.25 261.797 156.876C262.295 156.751 262.794 156.627 263.168 156.502C267.281 155.505 271.144 154.134 274.634 152.763C275.133 152.638 275.507 152.389 276.005 152.265C279.619 150.644 282.735 148.899 285.228 147.03C285.602 146.656 286.1 146.407 286.474 146.033C290.338 142.917 292.332 139.552 291.709 136.312C291.335 134.317 291.086 127.463 288.842 126.092C286.599 124.721 283.483 124.098 279.744 124.098C279.245 124.098 278.747 124.098 278.248 124.098C270.77 124.347 261.174 126.466 251.328 128.21C239.737 130.329 226.152 132.074 218.799 135.938C218.3 136.187 217.926 136.436 217.552 136.685C217.179 137.059 216.555 137.433 216.182 137.807Z" fill="#23286B"/>
<g opacity="0.2">
<path opacity="0.2" d="M277.999 122.727L278.373 124.098L285.352 146.905C285.726 146.532 286.225 146.282 286.599 145.908L279.993 123.973L279.495 122.228L277.999 122.727Z" fill="#23286B"/>
</g>
<g opacity="0.2">
<path opacity="0.2" d="M267.654 129.083L274.758 152.638C275.257 152.513 275.631 152.264 276.129 152.14L269.025 128.709L267.654 129.083Z" fill="#23286B"/>
</g>
<g opacity="0.2">
<path opacity="0.2" d="M243.475 136.436L250.206 158.746C250.704 158.746 251.203 158.621 251.701 158.621L244.846 136.062L243.475 136.436Z" fill="#23286B"/>
</g>
<g opacity="0.2">
<path opacity="0.2" d="M254.692 133.071L261.921 156.751C262.42 156.627 262.918 156.502 263.292 156.378L256.063 132.573L254.692 133.071Z" fill="#23286B"/>
</g>
<g opacity="0.2">
<path opacity="0.2" d="M229.516 137.433L236.122 159.119C236.62 159.119 237.119 159.119 237.617 159.244L230.887 137.059L229.516 137.433Z" fill="#23286B"/>
</g>
<path d="M215.145 142.732C213.686 134.532 229.423 124.874 250.295 121.16C271.167 117.445 289.27 121.081 290.729 129.281C292.188 137.481 276.451 147.139 255.579 150.853C234.708 154.567 216.605 150.931 215.145 142.732Z" fill="#B81F94"/>
<path opacity="0.2" d="M222.334 141.366C221.297 135.538 233.805 128.438 250.272 125.508C266.739 122.577 280.929 124.926 281.966 130.754C283.003 136.582 270.495 143.682 254.028 146.612C237.561 149.543 223.371 147.194 222.334 141.366Z" fill="white"/>
<path d="M234.071 197.139C231.329 203.869 215.127 203.371 198.052 196.391C181.102 189.287 169.511 178.195 172.378 171.589C173.001 170.094 174.746 164.236 176.74 163.488C183.096 160.871 195.061 166.853 208.147 172.212C220.237 177.198 234.196 180.438 236.314 187.044C237.561 190.907 234.819 195.269 234.071 197.139Z" fill="#B81F94"/>
<path opacity="0.2" d="M236.315 186.919C237.312 192.154 235.068 194.647 234.071 197.015C233.074 199.507 230.208 201.003 226.22 201.501C225.721 201.626 225.222 201.626 224.724 201.626C221.982 201.875 218.866 201.626 215.501 201.128C215.003 201.128 214.629 201.003 214.13 200.878C210.765 200.255 207.275 199.383 203.536 198.136C203.163 198.012 202.789 197.887 202.29 197.762C200.919 197.264 199.424 196.765 198.053 196.142C196.682 195.519 195.311 194.896 193.94 194.273C193.566 194.148 193.192 193.899 192.818 193.774C189.453 192.154 186.462 190.284 183.72 188.415C183.346 188.166 183.097 187.916 182.723 187.667C179.981 185.673 177.613 183.554 175.868 181.56C175.619 181.186 175.245 180.937 174.996 180.563C172.254 177.198 171.257 173.958 172.378 171.34C173.126 169.72 174.622 163.987 176.74 163.239C178.859 162.491 181.601 162.491 184.842 163.239C185.215 163.364 185.714 163.364 186.088 163.489C192.32 165.109 200.171 168.598 208.148 171.964C217.62 175.827 228.837 179.94 234.196 184.551C234.57 184.801 234.819 185.175 235.193 185.424C235.567 186.047 235.941 186.546 236.315 186.919Z" fill="#23286B"/>
<g opacity="0.2">
<path opacity="0.2" d="M186.586 162.616L185.963 163.613L175.868 181.685C175.618 181.311 175.244 181.062 174.995 180.688L184.716 163.364L185.464 161.993L186.586 162.616Z" fill="#23286B"/>
</g>
<g opacity="0.2">
<path opacity="0.2" d="M194.189 169.969L183.72 188.664C183.346 188.415 183.097 188.166 182.723 187.916L193.067 169.346L194.189 169.969Z" fill="#23286B"/>
</g>
<g opacity="0.2">
<path opacity="0.2" d="M213.383 180.688L203.537 198.386C203.163 198.261 202.79 198.136 202.291 198.012L212.262 180.189L213.383 180.688Z" fill="#23286B"/>
</g>
<g opacity="0.2">
<path opacity="0.2" d="M204.534 175.703L194.065 194.522C193.691 194.397 193.317 194.148 192.943 194.024L203.537 175.204L204.534 175.703Z" fill="#23286B"/>
</g>
<g opacity="0.2">
<path opacity="0.2" d="M224.974 184.177L215.377 201.377C214.878 201.377 214.504 201.252 214.006 201.127L223.852 183.554L224.974 184.177Z" fill="#23286B"/>
</g>
<path d="M236.19 191.281C233.448 198.011 217.37 197.762 200.42 190.658C183.47 183.554 171.879 172.586 174.621 165.856C177.363 159.126 193.441 159.375 210.391 166.479C227.465 173.459 238.932 184.551 236.19 191.281Z" fill="#B81F94"/>
<path opacity="0.2" d="M230.457 188.913C228.463 193.649 216 193.026 202.539 187.418C189.079 181.809 179.731 173.584 181.726 168.848C183.72 164.111 196.183 164.735 209.643 170.343C223.104 175.827 232.326 184.177 230.457 188.913Z" fill="white"/>
<path d="M259.745 109.772C258.249 117.998 239.928 121.487 219.114 117.748C198.301 114.009 182.597 104.413 183.968 96.1872C184.342 94.3177 184.841 87.3383 186.835 85.9673C193.316 81.3559 208.271 85.2195 224.349 88.0861C239.305 90.7034 255.632 90.9526 259.745 97.8074C262.237 102.045 260.243 107.528 259.745 109.772Z" fill="#B81F94"/>
<path opacity="0.2" d="M259.744 97.8073C262.237 103.416 260.243 106.905 259.744 109.772C259.246 112.763 256.379 115.131 252.017 116.751C251.519 117.001 250.895 117.125 250.397 117.374C247.406 118.247 243.791 118.87 239.928 119.119C239.429 119.119 238.931 119.119 238.432 119.244C234.569 119.369 230.331 119.244 225.844 118.745C225.346 118.745 224.847 118.621 224.349 118.621C222.604 118.372 220.984 118.122 219.239 117.873C217.494 117.624 215.874 117.25 214.129 116.876C213.63 116.751 213.132 116.627 212.758 116.502C208.645 115.505 204.781 114.134 201.292 112.763C200.793 112.638 200.419 112.389 199.921 112.265C196.306 110.644 193.191 108.899 190.698 107.03C190.324 106.656 189.826 106.407 189.452 106.033C185.588 102.917 183.594 99.5521 184.217 96.3117C184.591 94.3176 184.84 87.4628 187.084 86.0918C189.327 84.7209 192.443 84.0977 196.182 84.0977C196.68 84.0977 197.179 84.0977 197.677 84.0977C205.155 84.347 214.752 86.4657 224.598 88.2106C236.189 90.3293 249.774 92.0742 257.127 95.9378C257.626 96.1871 257.999 96.4363 258.373 96.6856C258.747 97.0595 259.37 97.4334 259.744 97.8073Z" fill="#23286B"/>
<g opacity="0.2">
<path opacity="0.2" d="M197.927 82.7271L197.553 84.098L190.573 106.905C190.2 106.532 189.701 106.282 189.327 105.908L195.933 83.9734L196.431 82.2285L197.927 82.7271Z" fill="#23286B"/>
</g>
<g opacity="0.2">
<path opacity="0.2" d="M208.271 89.0829L201.167 112.638C200.669 112.513 200.295 112.264 199.796 112.14L206.9 88.709L208.271 89.0829Z" fill="#23286B"/>
</g>
<g opacity="0.2">
<path opacity="0.2" d="M232.45 96.4364L225.72 118.746C225.222 118.746 224.723 118.621 224.225 118.621L231.079 96.0625L232.45 96.4364Z" fill="#23286B"/>
</g>
<g opacity="0.2">
<path opacity="0.2" d="M221.233 93.0709L214.005 116.751C213.506 116.627 213.008 116.502 212.634 116.378L219.862 92.5723L221.233 93.0709Z" fill="#23286B"/>
</g>
<g opacity="0.2">
<path opacity="0.2" d="M246.41 97.4335L239.804 119.119C239.306 119.119 238.807 119.119 238.309 119.244L245.039 97.0596L246.41 97.4335Z" fill="#23286B"/>
</g>
<path d="M260.78 102.732C262.24 94.5318 246.502 84.8736 225.631 81.1593C204.759 77.445 186.656 81.0811 185.197 89.2807C183.738 97.4803 199.475 107.139 220.346 110.853C241.218 114.567 259.321 110.931 260.78 102.732Z" fill="#B81F94"/>
<path opacity="0.2" d="M253.592 101.366C254.629 95.5381 242.121 88.4381 225.653 85.5076C209.186 82.5772 194.997 84.926 193.959 90.7538C192.922 96.5817 205.431 103.682 221.898 106.612C238.365 109.543 252.555 107.194 253.592 101.366Z" fill="white"/>
<path d="M144.93 181.724C155.492 190.606 158.432 190.664 166.574 187.88C174.715 185.097 177.004 184.627 177.004 184.627C177.004 184.627 179.942 188.581 173.658 190.298C167.375 192.014 166.667 194.427 172.06 196.885C177.453 199.343 186.535 201.137 186.798 202.76C187.061 204.383 186.213 206.352 182.705 205.255C179.197 204.157 172.542 202.336 173.263 203.085C173.983 203.835 184.425 206.666 184.105 207.984C183.786 209.301 172.602 218.149 165.145 212.194C157.687 206.239 153.878 197.929 148.776 195.623C143.675 193.318 115.639 183.067 108.432 175.573L123.394 154.831C123.394 154.831 134.367 172.841 144.93 181.724Z" fill="url(#paint4_linear_659_982)"/>
<path opacity="0.86" d="M73.2501 152.746C73.3123 152.721 73.3822 152.753 73.407 152.814C73.4338 152.872 73.4084 152.941 73.3504 152.968C73.349 152.969 73.3476 152.97 73.3469 152.97C73.2847 152.994 73.2147 152.964 73.19 152.902C73.166 152.842 73.1921 152.774 73.2501 152.746ZM75.9313 151.646C75.9935 151.621 76.0634 151.652 76.0882 151.714C76.1129 151.776 76.0818 151.846 76.0196 151.871C75.9574 151.896 75.8875 151.865 75.8627 151.803C75.8408 151.74 75.8712 151.672 75.9313 151.646ZM78.6054 150.547C78.6676 150.522 78.7383 150.551 78.763 150.614C78.7877 150.676 78.7581 150.747 78.6959 150.771C78.6952 150.771 78.6945 150.772 78.6937 150.772C78.6358 150.795 78.5701 150.767 78.5475 150.709C78.5468 150.707 78.546 150.705 78.5453 150.703C78.5171 150.649 78.5376 150.582 78.5913 150.553C78.5955 150.55 78.6005 150.548 78.6054 150.547ZM81.7771 161.453C81.8025 161.393 81.8725 161.364 81.9326 161.391C81.9926 161.417 82.0209 161.486 81.9947 161.546C81.9693 161.606 81.8993 161.634 81.8393 161.608C81.7792 161.582 81.7509 161.513 81.7771 161.453ZM82.8901 158.784C82.9106 158.726 82.9749 158.695 83.0329 158.716C83.0371 158.717 83.0414 158.72 83.0456 158.722C83.1071 158.745 83.1389 158.814 83.1163 158.876C83.0866 158.936 83.0159 158.963 82.953 158.939C82.8922 158.914 82.864 158.844 82.8901 158.784ZM84.0032 156.115C84.0307 156.053 84.1007 156.022 84.165 156.043C84.2251 156.073 84.2526 156.144 84.2286 156.207C84.2032 156.267 84.1339 156.295 84.0738 156.269C84.0117 156.246 83.9806 156.177 84.0032 156.115ZM85.1233 153.437C85.1487 153.377 85.218 153.348 85.2781 153.375C85.3388 153.404 85.3671 153.475 85.3417 153.538C85.3162 153.598 85.247 153.626 85.1869 153.6C85.1254 153.571 85.0978 153.5 85.1233 153.437ZM77.6796 156.761C77.7256 156.716 77.7991 156.717 77.8436 156.763C77.8881 156.809 77.8874 156.882 77.8415 156.927C77.7955 156.972 77.722 156.971 77.6775 156.925C77.633 156.884 77.6295 156.814 77.6712 156.769C77.674 156.767 77.6768 156.764 77.6796 156.761ZM79.7305 154.716C79.7764 154.672 79.8492 154.673 79.8944 154.718C79.9128 154.737 79.9241 154.761 79.9284 154.787C79.9347 154.826 79.9213 154.865 79.8937 154.891C79.8881 154.898 79.8796 154.902 79.8711 154.902L79.8633 154.903C79.8216 154.932 79.7651 154.925 79.7305 154.889C79.6831 154.844 79.6817 154.769 79.7269 154.722C79.7277 154.719 79.7291 154.717 79.7305 154.716ZM81.7827 152.679C81.8287 152.634 81.9022 152.635 81.9467 152.681C81.9912 152.727 81.9905 152.801 81.9446 152.845C81.9015 152.892 81.8287 152.895 81.7813 152.851C81.734 152.806 81.7325 152.731 81.7778 152.684C81.7799 152.682 81.7813 152.68 81.7827 152.679ZM83.8343 150.633C83.8802 150.589 83.953 150.59 83.9982 150.636C84.0456 150.681 84.047 150.756 84.0018 150.803C84.0004 150.805 83.9989 150.806 83.9975 150.807C83.9565 150.852 83.8866 150.855 83.8413 150.814C83.8385 150.811 83.8357 150.808 83.8329 150.805C83.7855 150.759 83.7841 150.684 83.8307 150.636C83.8321 150.636 83.8329 150.635 83.8343 150.633ZM87.9409 161.075C88.0087 161.075 88.0639 161.129 88.0646 161.197C88.0646 161.265 88.0101 161.32 87.9423 161.321C87.8745 161.321 87.8193 161.266 87.8186 161.198C87.8186 161.131 87.8731 161.075 87.9409 161.075ZM66.0962 162.01C66.188 161.926 66.3294 161.933 66.4128 162.025C66.4149 162.027 66.4163 162.029 66.4184 162.031C66.499 162.123 66.4898 162.264 66.3979 162.344C66.3972 162.345 66.3972 162.345 66.3965 162.346C66.3046 162.429 66.1633 162.423 66.0799 162.331C66.0778 162.329 66.0764 162.326 66.0743 162.324C65.9937 162.232 66.0029 162.092 66.0948 162.011C66.0948 162.011 66.0955 162.01 66.0962 162.01ZM70.2409 158.405C70.3328 158.324 70.4734 158.334 70.554 158.425C70.5547 158.426 70.5547 158.426 70.5554 158.427C70.6388 158.522 70.6296 158.666 70.5342 158.749C70.4395 158.833 70.2954 158.823 70.212 158.728C70.1335 158.63 70.1462 158.488 70.2409 158.405ZM74.3794 154.809C74.4741 154.726 74.6182 154.735 74.7016 154.831C74.785 154.925 74.7751 155.069 74.6804 155.153C74.5857 155.236 74.4416 155.227 74.3582 155.132C74.2748 155.04 74.2811 154.898 74.373 154.815C74.3751 154.813 74.3772 154.811 74.3794 154.809ZM78.5171 151.214C78.6089 151.13 78.7503 151.137 78.8337 151.229C78.8358 151.231 78.8372 151.233 78.8393 151.235C78.8909 151.29 78.9107 151.368 78.8923 151.441L78.8846 151.442C78.8761 151.487 78.8528 151.528 78.8188 151.558C78.7976 151.578 78.7708 151.59 78.7418 151.593C78.6273 151.639 78.498 151.582 78.4528 151.468C78.4174 151.378 78.4436 151.275 78.5171 151.214ZM82.7799 175.862C82.905 175.871 82.9997 175.978 82.9933 176.103C82.9869 176.223 82.8845 176.316 82.7636 176.31C82.7594 176.31 82.7551 176.309 82.7516 176.309C82.6265 176.3 82.5318 176.193 82.5382 176.068C82.5481 175.944 82.6562 175.852 82.7799 175.862ZM83.1686 170.386C83.2922 170.396 83.3841 170.504 83.3742 170.627C83.3679 170.753 83.2611 170.849 83.1354 170.843C83.0096 170.837 82.9135 170.73 82.9198 170.604C82.9198 170.603 82.9198 170.601 82.9198 170.6C82.9339 170.475 83.0421 170.381 83.1686 170.386ZM83.5495 164.91C83.6746 164.924 83.7686 165.032 83.7643 165.159C83.758 165.279 83.6548 165.371 83.5346 165.365C83.5304 165.365 83.5262 165.364 83.5226 165.364C83.399 165.359 83.3035 165.255 83.3085 165.132C83.3085 165.129 83.3085 165.126 83.3092 165.124C83.317 164.999 83.4244 164.904 83.5495 164.91ZM83.9389 159.441C84.0625 159.451 84.1544 159.559 84.1445 159.683C84.1445 159.683 84.1445 159.683 84.1445 159.684C84.136 159.809 84.0272 159.903 83.9021 159.895C83.777 159.886 83.6823 159.778 83.6908 159.653C83.6993 159.527 83.8081 159.433 83.9332 159.441C83.9353 159.441 83.9367 159.441 83.9389 159.441ZM84.3198 153.966C84.4456 153.979 84.5367 154.091 84.524 154.216C84.512 154.338 84.406 154.428 84.2844 154.422C84.1643 154.416 84.0717 154.313 84.0781 154.192C84.0781 154.188 84.0788 154.184 84.0788 154.18C84.088 154.054 84.1947 153.96 84.3198 153.966ZM68.9166 150.848C69.0297 150.807 69.154 150.865 69.195 150.978C69.1964 150.982 69.1971 150.985 69.1986 150.989C69.2417 151.104 69.1823 151.233 69.0671 151.275C68.9519 151.318 68.8233 151.259 68.7809 151.144C68.7788 151.139 68.7774 151.134 68.776 151.129C68.7357 151.016 68.7936 150.891 68.9067 150.85C68.9102 150.85 68.9131 150.848 68.9166 150.848ZM74.1136 149.104C74.231 149.062 74.3596 149.124 74.4006 149.241C74.402 149.245 74.4027 149.248 74.4041 149.252C74.4437 149.368 74.3815 149.494 74.2656 149.533C74.2649 149.533 74.2642 149.534 74.2628 149.534C74.1454 149.575 74.0161 149.515 73.9744 149.397C73.9737 149.396 73.9737 149.394 73.973 149.393C73.9334 149.275 73.9956 149.146 74.1136 149.104ZM72.007 170.399C72.0607 170.284 72.1978 170.234 72.3137 170.287C72.4289 170.341 72.479 170.478 72.4253 170.594C72.3716 170.71 72.2345 170.76 72.1186 170.706C72.1172 170.705 72.1158 170.704 72.1144 170.704C72.002 170.648 71.9547 170.513 72.007 170.399ZM74.4564 165.489C74.5101 165.374 74.6472 165.323 74.7631 165.377C74.879 165.431 74.9285 165.568 74.8748 165.684C74.8211 165.799 74.684 165.849 74.5681 165.796C74.5666 165.795 74.5652 165.794 74.5638 165.793C74.4514 165.738 74.4041 165.603 74.4564 165.489ZM76.9058 160.579C76.9673 160.468 77.1044 160.424 77.2196 160.478C77.3319 160.537 77.3758 160.677 77.3157 160.79C77.2585 160.899 77.1256 160.943 77.0146 160.892C76.9016 160.832 76.8542 160.696 76.9058 160.579ZM79.3637 155.676C79.4153 155.563 79.5496 155.513 79.6619 155.566C79.775 155.617 79.8245 155.752 79.7722 155.864C79.7708 155.867 79.7686 155.871 79.7672 155.874C79.7128 155.985 79.5785 156.031 79.4676 155.976C79.4655 155.976 79.4633 155.974 79.4612 155.974C79.3538 155.924 79.3065 155.796 79.3566 155.689C79.3595 155.684 79.3616 155.68 79.3637 155.676ZM81.8131 150.766C81.8704 150.655 82.0067 150.613 82.117 150.67C82.223 150.725 82.2675 150.855 82.2173 150.964C82.1615 151.075 82.0265 151.123 81.9128 151.071C81.8011 151.016 81.7559 150.881 81.811 150.769C81.8117 150.768 81.8124 150.767 81.8131 150.766ZM93.0715 171.931C93.1846 171.89 93.309 171.95 93.3492 172.064C93.3514 172.069 93.3528 172.075 93.3542 172.081C93.3938 172.197 93.3316 172.322 93.2157 172.361C93.215 172.361 93.2143 172.362 93.2128 172.362C93.0941 172.402 92.9655 172.34 92.9231 172.222C92.8899 172.101 92.9542 171.975 93.0715 171.931ZM91.3281 166.733C91.4454 166.692 91.574 166.753 91.6164 166.87C91.6171 166.871 91.6171 166.873 91.6178 166.874C91.6581 166.993 91.5959 167.122 91.4779 167.164C91.3571 167.197 91.2313 167.133 91.1875 167.016C91.1479 166.9 91.2101 166.774 91.326 166.735C91.3267 166.733 91.3274 166.733 91.3281 166.733ZM67.3039 167.896C67.3626 167.802 67.4869 167.773 67.5816 167.831C67.6763 167.89 67.7053 168.014 67.6467 168.109C67.646 168.11 67.646 168.11 67.6452 168.111C67.5852 168.205 67.4608 168.233 67.3668 168.173C67.2735 168.113 67.2452 167.99 67.3039 167.896ZM69.8989 163.744C69.9583 163.65 70.0826 163.622 70.1766 163.681C70.2706 163.741 70.2989 163.865 70.2395 163.959C70.1802 164.053 70.0558 164.081 69.9618 164.022C69.8685 163.966 69.8381 163.845 69.894 163.751C69.8954 163.749 69.8975 163.746 69.8989 163.744ZM72.4925 159.584C72.508 159.549 72.5363 159.521 72.5723 159.508L72.5801 159.506C72.6423 159.479 72.7137 159.484 72.7702 159.521C72.867 159.582 72.896 159.709 72.8352 159.805C72.8345 159.806 72.8345 159.807 72.8338 159.807C72.7737 159.901 72.6501 159.928 72.5561 159.87C72.5123 159.845 72.4819 159.801 72.4741 159.751C72.4522 159.696 72.4586 159.633 72.4925 159.584ZM75.0875 155.432C75.1475 155.339 75.2712 155.311 75.3652 155.369C75.4613 155.429 75.4903 155.555 75.4302 155.651C75.3709 155.746 75.2472 155.776 75.1511 155.718C75.0543 155.658 75.0253 155.53 75.0861 155.434C75.0868 155.434 75.0875 155.433 75.0875 155.432ZM77.6747 151.282C77.7383 151.188 77.8634 151.16 77.9609 151.217C78.0556 151.28 78.0818 151.406 78.0203 151.501C77.9609 151.591 77.8415 151.62 77.7475 151.566C77.6514 151.505 77.6203 151.381 77.6747 151.282ZM87.7529 171.201C87.8617 171.176 87.9699 171.243 87.9946 171.352C87.9946 171.353 87.9953 171.354 87.9953 171.355C88.0229 171.46 87.9614 171.567 87.8568 171.595C87.854 171.596 87.8511 171.596 87.8483 171.597C87.7374 171.62 87.6271 171.553 87.5974 171.444C87.5784 171.335 87.6462 171.229 87.7529 171.201ZM86.6505 166.43C86.7593 166.406 86.8674 166.473 86.8922 166.582C86.8922 166.583 86.8929 166.584 86.8929 166.585C86.9204 166.69 86.8589 166.796 86.7543 166.825C86.7515 166.825 86.7487 166.826 86.7459 166.827C86.6384 166.852 86.531 166.787 86.5042 166.68C86.478 166.571 86.543 166.461 86.6505 166.43ZM85.548 161.66C85.6569 161.635 85.765 161.702 85.7897 161.811C85.7897 161.813 85.7904 161.813 85.7904 161.815C85.8201 161.916 85.7628 162.022 85.6625 162.051C85.6561 162.054 85.6505 162.055 85.6441 162.056C85.5353 162.08 85.4272 162.013 85.4024 161.904C85.4024 161.903 85.4017 161.902 85.4017 161.901C85.3784 161.794 85.4427 161.688 85.548 161.66ZM84.454 156.888C84.5629 156.868 84.6689 156.936 84.6964 157.043C84.7205 157.153 84.6512 157.262 84.541 157.286C84.4343 157.309 84.3275 157.244 84.3 157.139C84.2774 157.027 84.3445 156.918 84.454 156.888ZM83.3438 152.119C83.4548 152.095 83.565 152.162 83.5947 152.272C83.6201 152.381 83.5516 152.49 83.4421 152.516C83.3325 152.541 83.223 152.473 83.1982 152.363C83.1982 152.362 83.1975 152.361 83.1975 152.36C83.177 152.254 83.2399 152.15 83.3438 152.119ZM69.3498 153.326C69.4438 153.266 69.5682 153.288 69.6353 153.377C69.6996 153.47 69.677 153.598 69.5844 153.663C69.489 153.724 69.3625 153.698 69.301 153.602C69.2424 153.512 69.2643 153.391 69.3498 153.326ZM73.3391 150.489C73.4289 150.422 73.5561 150.441 73.6232 150.531L73.6239 150.532C73.684 150.626 73.6621 150.75 73.573 150.817C73.4805 150.882 73.3525 150.859 73.2875 150.766C73.2246 150.679 73.2437 150.558 73.3306 150.495C73.3334 150.493 73.3363 150.491 73.3391 150.489ZM77.339 169.038C77.4478 169.062 77.5199 169.167 77.503 169.278C77.4839 169.387 77.3807 169.46 77.2719 169.441C77.1616 169.424 77.086 169.322 77.1009 169.211C77.1199 169.098 77.2259 169.021 77.339 169.038ZM78.1446 164.208C78.2535 164.232 78.3256 164.337 78.3086 164.448C78.2895 164.556 78.1863 164.629 78.0775 164.611C77.9715 164.596 77.8973 164.498 77.9122 164.392C77.9129 164.388 77.9136 164.384 77.9143 164.38C77.9319 164.27 78.0344 164.193 78.1446 164.208ZM78.9517 159.386C79.0577 159.401 79.1319 159.499 79.1171 159.605C79.1164 159.609 79.1157 159.613 79.115 159.617C79.0973 159.726 78.9948 159.801 78.886 159.783C78.7771 159.766 78.7022 159.663 78.7199 159.554C78.7199 159.553 78.7206 159.551 78.7206 159.549C78.7355 159.443 78.8337 159.369 78.9397 159.384C78.9439 159.385 78.9482 159.385 78.9517 159.386ZM79.758 154.556C79.8683 154.574 79.9432 154.676 79.9284 154.787C79.9206 154.83 79.9008 154.869 79.8711 154.901L79.8633 154.903C79.8167 154.946 79.7524 154.964 79.6902 154.951C79.5814 154.932 79.5093 154.827 79.5291 154.719C79.5482 154.611 79.6499 154.539 79.758 154.556ZM67.6785 155.868C67.7237 155.819 67.8 155.816 67.8495 155.861C67.8989 155.906 67.9018 155.983 67.8565 156.032C67.8113 156.082 67.735 156.084 67.6855 156.039C67.6389 155.993 67.6354 155.918 67.6785 155.868ZM69.6473 153.76C69.6926 153.711 69.7689 153.708 69.8183 153.753C69.8678 153.799 69.8706 153.875 69.8254 153.924C69.7802 153.974 69.7039 153.977 69.6544 153.932C69.6078 153.886 69.6042 153.811 69.6473 153.76ZM71.6233 151.644C71.6664 151.598 71.7391 151.595 71.7865 151.638C71.8353 151.675 71.8444 151.745 71.807 151.794C71.8027 151.799 71.7985 151.804 71.7936 151.809C71.7505 151.856 71.6777 151.858 71.6303 151.815C71.5816 151.777 71.5731 151.706 71.6112 151.657C71.6148 151.653 71.619 151.648 71.6233 151.644ZM73.5921 149.536C73.6387 149.49 73.7129 149.487 73.7631 149.529C73.8105 149.575 73.8119 149.651 73.766 149.698C73.7652 149.7 73.7638 149.7 73.7624 149.702C73.7193 149.749 73.6465 149.751 73.5992 149.708C73.5525 149.662 73.549 149.587 73.5921 149.536ZM79.1482 160.096C79.2132 160.094 79.2683 160.145 79.2704 160.21C79.2725 160.275 79.2217 160.33 79.1566 160.333C79.0916 160.335 79.0365 160.284 79.0344 160.219C79.0323 160.154 79.0831 160.099 79.1482 160.096ZM79.052 157.21C79.1149 157.205 79.1694 157.252 79.1743 157.315C79.1743 157.318 79.1743 157.321 79.1743 157.324C79.1764 157.389 79.1255 157.444 79.0605 157.447C78.9941 157.45 78.9362 157.4 78.9305 157.333C78.9291 157.266 78.9828 157.211 79.0499 157.21C79.0499 157.21 79.0513 157.21 79.052 157.21ZM78.9475 154.324C79.0104 154.32 79.0648 154.367 79.0697 154.43C79.0697 154.433 79.0697 154.436 79.0697 154.439C79.0718 154.504 79.0209 154.559 78.9559 154.561C78.8909 154.563 78.8358 154.513 78.8337 154.447C78.8316 154.382 78.8824 154.327 78.9475 154.324ZM78.8514 151.438C78.8627 151.435 78.874 151.437 78.8846 151.442L78.8923 151.44C78.939 151.458 78.9708 151.501 78.9736 151.552C78.9757 151.617 78.9248 151.672 78.8598 151.674C78.8075 151.673 78.7616 151.641 78.7418 151.593L78.7376 151.56C78.7326 151.497 78.78 151.443 78.8429 151.438C78.845 151.438 78.8485 151.438 78.8514 151.438ZM68.0353 148.799C68.0891 148.77 68.1562 148.791 68.1845 148.844C68.1866 148.849 68.1887 148.854 68.1908 148.859C68.2184 148.914 68.1958 148.983 68.1392 149.011C68.1364 149.012 68.1336 149.013 68.13 149.015C68.0707 149.04 68.0014 149.013 67.9746 148.955C67.9477 148.897 67.9732 148.828 68.0311 148.801C68.0332 148.799 68.0339 148.799 68.0353 148.799ZM73.3582 157.671C73.3773 157.611 73.4416 157.577 73.5017 157.596C73.5052 157.598 73.5087 157.599 73.5122 157.601C73.573 157.621 73.6055 157.688 73.585 157.748C73.5843 157.75 73.5836 157.753 73.5829 157.755C73.5561 157.813 73.4903 157.844 73.4289 157.825C73.3674 157.801 73.3356 157.732 73.3582 157.671ZM74.3751 154.958C74.3977 154.899 74.4642 154.869 74.5228 154.892C74.5249 154.893 74.5278 154.894 74.5299 154.895C74.5907 154.92 74.6211 154.987 74.6006 155.049C74.5737 155.108 74.508 155.138 74.4465 155.12C74.3836 155.098 74.3497 155.029 74.3723 154.965C74.373 154.963 74.3737 154.96 74.3751 154.958ZM75.385 152.254C75.4118 152.195 75.4776 152.164 75.5391 152.183C75.6005 152.206 75.6323 152.275 75.6097 152.337C75.5906 152.397 75.5263 152.43 75.4663 152.411C75.4627 152.41 75.4592 152.408 75.4557 152.407C75.3949 152.386 75.3624 152.32 75.3829 152.259C75.3836 152.258 75.3843 152.256 75.385 152.254ZM76.3949 149.55C76.4217 149.491 76.4874 149.461 76.5489 149.479C76.6104 149.503 76.6415 149.571 76.6196 149.633C76.6005 149.693 76.5362 149.727 76.4761 149.708C76.4726 149.706 76.4691 149.705 76.4655 149.703C76.4041 149.681 76.3723 149.612 76.3949 149.55ZM84.4717 157.312C84.5254 157.283 84.5926 157.304 84.6208 157.357C84.6229 157.362 84.6251 157.367 84.6272 157.372C84.6533 157.431 84.6265 157.501 84.5671 157.527C84.5078 157.553 84.4378 157.526 84.4116 157.467C84.3848 157.408 84.4123 157.338 84.4717 157.312ZM83.2725 154.684C83.3262 154.656 83.3933 154.676 83.4216 154.73C83.4237 154.735 83.4258 154.739 83.4279 154.744C83.4562 154.801 83.4336 154.87 83.3763 154.898C83.3763 154.898 83.3756 154.898 83.3756 154.899C83.3141 154.927 83.2414 154.901 83.2117 154.84C83.1848 154.782 83.2103 154.713 83.2682 154.686C83.2703 154.686 83.2717 154.685 83.2725 154.684ZM82.0739 152.057C82.1333 152.028 82.2046 152.051 82.2364 152.108C82.2654 152.169 82.2386 152.243 82.1771 152.272C82.1156 152.301 82.0421 152.274 82.0131 152.213C81.9898 152.153 82.0159 152.085 82.0739 152.057ZM65.5824 158.714C65.6198 158.652 65.6997 158.633 65.7612 158.67C65.7626 158.671 65.7633 158.671 65.7647 158.672C65.8283 158.709 65.8502 158.79 65.8128 158.854C65.8114 158.857 65.8092 158.859 65.8071 158.862C65.7697 158.924 65.6898 158.944 65.6283 158.906C65.6269 158.905 65.6262 158.905 65.6248 158.904C65.5619 158.863 65.5428 158.779 65.5824 158.714ZM67.3604 155.937C67.3979 155.875 67.4778 155.855 67.5392 155.893C67.5407 155.894 67.5414 155.894 67.5428 155.895C67.6071 155.936 67.6262 156.022 67.5859 156.086C67.5449 156.15 67.4594 156.169 67.3951 156.129C67.3336 156.089 67.3152 156.007 67.3541 155.946C67.3562 155.942 67.3583 155.94 67.3604 155.937ZM69.1307 153.16C69.171 153.095 69.2565 153.076 69.3208 153.116C69.3858 153.156 69.4056 153.242 69.3653 153.306C69.3646 153.307 69.3646 153.307 69.3639 153.308C69.3653 153.316 69.3569 153.317 69.3498 153.326C69.3032 153.374 69.2304 153.384 69.1731 153.351C69.1095 153.31 69.0904 153.225 69.1307 153.16ZM70.9081 150.383L70.9356 150.346C70.9434 150.345 70.9505 150.336 70.9667 150.334C71.0084 150.311 71.0593 150.313 71.0989 150.34C71.1632 150.381 71.1823 150.467 71.1413 150.531C71.1003 150.595 71.0148 150.614 70.9505 150.573C70.8869 150.533 70.8678 150.448 70.9081 150.383ZM79.3263 161.087C79.3997 161.078 79.469 161.124 79.4888 161.196C79.505 161.268 79.4605 161.34 79.3884 161.357C79.3213 161.377 79.2506 161.339 79.2308 161.273C79.2294 161.268 79.228 161.263 79.2273 161.257C79.2075 161.183 79.252 161.107 79.3255 161.088C79.3262 161.087 79.3263 161.087 79.3263 161.087ZM78.6188 157.868C78.6923 157.859 78.7616 157.905 78.7814 157.977C78.7976 158.049 78.7531 158.121 78.681 158.138C78.6068 158.158 78.5312 158.113 78.5121 158.04V158.039C78.4987 157.963 78.5446 157.889 78.6188 157.868ZM77.9114 154.648C77.9849 154.639 78.0542 154.685 78.074 154.757C78.0902 154.829 78.0457 154.901 77.9736 154.918C77.9058 154.937 77.8344 154.898 77.8153 154.83C77.8132 154.824 77.8118 154.816 77.8111 154.809C77.7948 154.737 77.8394 154.665 77.9114 154.648ZM77.204 151.429C77.2782 151.416 77.3496 151.463 77.3666 151.537C77.3828 151.61 77.3383 151.682 77.2662 151.699C77.1984 151.718 77.127 151.679 77.1079 151.61C77.1058 151.603 77.1044 151.597 77.1037 151.59C77.0867 151.518 77.1319 151.446 77.204 151.429ZM67.3074 148.866C67.3725 148.827 67.4566 148.844 67.5011 148.905C67.5421 148.964 67.5279 149.045 67.4693 149.086C67.4665 149.088 67.4643 149.09 67.4615 149.091C67.4064 149.134 67.3265 149.124 67.2841 149.069C67.282 149.066 67.2792 149.063 67.2771 149.059C67.2361 148.996 67.2495 148.913 67.3074 148.866ZM72.4155 159.619C72.4261 159.547 72.4946 159.496 72.5674 159.507C72.5688 159.507 72.5702 159.508 72.5723 159.508L72.5801 159.506C72.6501 159.524 72.6953 159.592 72.684 159.664C72.6734 159.737 72.6049 159.788 72.5321 159.776C72.5306 159.776 72.5292 159.776 72.5271 159.776C72.508 159.77 72.4904 159.761 72.4741 159.75C72.4289 159.724 72.4056 159.671 72.4155 159.619ZM73.1547 156.257C73.2289 156.275 73.2776 156.346 73.2677 156.422C73.2479 156.494 73.1759 156.54 73.1024 156.526C73.0303 156.512 72.9843 156.442 72.9985 156.371C72.9985 156.37 72.9985 156.369 72.9992 156.369C73.0105 156.295 73.0804 156.245 73.1547 156.257ZM73.7299 153.015C73.8041 153.027 73.8543 153.098 73.8416 153.172C73.8296 153.246 73.7589 153.296 73.6854 153.283C73.6112 153.271 73.561 153.201 73.5737 153.127C73.585 153.054 73.6529 153.003 73.7257 153.015C73.7264 153.015 73.7285 153.015 73.7299 153.015ZM74.3129 149.773C74.385 149.787 74.4317 149.857 74.4168 149.929V149.93C74.4062 149.999 74.3419 150.047 74.2727 150.037C74.2677 150.036 74.2635 150.035 74.2592 150.034C74.185 150.021 74.1356 149.951 74.1476 149.877C74.1638 149.803 74.2387 149.756 74.3129 149.773ZM84.8187 156.92C84.8774 156.879 84.9586 156.893 84.9996 156.952C85.0017 156.955 85.0031 156.957 85.0046 156.96C85.0463 157.02 85.0321 157.102 84.9728 157.144C84.9127 157.189 84.8279 157.177 84.7827 157.117C84.782 157.116 84.7805 157.114 84.7798 157.114C84.7381 157.049 84.7551 156.963 84.8187 156.92ZM82.9297 154.216C82.994 154.173 83.0802 154.191 83.1233 154.255C83.1643 154.313 83.1502 154.394 83.0915 154.435C83.0887 154.438 83.0866 154.439 83.0838 154.44C83.0286 154.484 82.9488 154.474 82.9057 154.419C82.9036 154.416 82.9007 154.412 82.8986 154.409C82.8541 154.347 82.8675 154.261 82.9297 154.216C82.929 154.216 82.929 154.216 82.9297 154.216ZM81.04 151.512C81.1015 151.469 81.1863 151.484 81.2301 151.545C81.2315 151.547 81.2329 151.549 81.2336 151.551C81.2753 151.614 81.2584 151.698 81.1955 151.74C81.134 151.781 81.052 151.765 81.0089 151.705C80.9686 151.642 80.982 151.559 81.04 151.512ZM67.535 173.18C67.6636 173.2 67.7527 173.319 67.7357 173.448C67.7145 173.575 67.5944 173.66 67.4671 173.641C67.3399 173.619 67.2516 173.502 67.2665 173.373C67.2884 173.246 67.4085 173.16 67.535 173.18ZM68.417 167.594C68.5442 167.616 68.6304 167.735 68.6099 167.863C68.5894 167.99 68.4693 168.076 68.3413 168.056C68.2141 168.035 68.1279 167.915 68.1484 167.788C68.1696 167.66 68.2898 167.575 68.417 167.594ZM69.2904 162.01C69.4176 162.026 69.5081 162.142 69.4925 162.269C69.4763 162.396 69.3604 162.487 69.2332 162.471C69.2297 162.471 69.2268 162.471 69.2233 162.47C69.0947 162.45 69.0056 162.331 69.0226 162.203C69.0431 162.076 69.1632 161.989 69.2904 162.01ZM70.1717 156.424C70.2982 156.443 70.3844 156.561 70.3653 156.687C70.3653 156.689 70.3646 156.691 70.3646 156.692C70.3441 156.82 70.224 156.906 70.0968 156.885C69.9696 156.865 69.8834 156.745 69.9039 156.617C69.9229 156.49 70.041 156.404 70.1674 156.423C70.1682 156.424 70.1703 156.424 70.1717 156.424ZM71.0452 150.839C71.1717 150.86 71.2586 150.978 71.2381 151.105C71.2183 151.229 71.1024 151.316 70.978 151.299C70.8494 151.279 70.7604 151.16 70.7773 151.031C70.7985 150.905 70.918 150.819 71.0452 150.839ZM90.4949 167.635C90.6016 167.559 90.7486 167.585 90.8242 167.691C90.897 167.794 90.8758 167.936 90.7769 168.014C90.6694 168.088 90.5225 168.065 90.4419 167.962C90.3691 167.856 90.3924 167.712 90.4949 167.635ZM87.1678 163.066C87.2724 162.99 87.4186 163.014 87.4943 163.119C87.5699 163.223 87.5459 163.37 87.4413 163.445C87.3367 163.521 87.1904 163.497 87.1148 163.392C87.0391 163.288 87.0632 163.141 87.1678 163.066ZM83.8413 158.497C83.941 158.419 84.0851 158.437 84.1629 158.537C84.1643 158.539 84.1657 158.541 84.1664 158.542C84.2406 158.65 84.218 158.797 84.1148 158.877C84.0095 158.951 83.8647 158.927 83.7883 158.824C83.712 158.722 83.7332 158.578 83.835 158.502C83.8371 158.5 83.8392 158.498 83.8413 158.497ZM80.5142 153.927C80.6139 153.85 80.7587 153.867 80.8365 153.968C80.8379 153.969 80.8386 153.971 80.84 153.973C80.9128 154.081 80.8902 154.226 80.7884 154.308C80.6831 154.382 80.5382 154.358 80.4619 154.255C80.3849 154.158 80.4011 154.017 80.4979 153.94C80.5029 153.935 80.5086 153.932 80.5142 153.927ZM77.1786 149.351C77.2839 149.278 77.4288 149.301 77.5051 149.404C77.5807 149.51 77.5567 149.658 77.4507 149.734C77.3475 149.808 77.204 149.787 77.1263 149.686C77.0521 149.578 77.0754 149.432 77.1786 149.351ZM78.556 170.197C78.6796 170.167 78.8033 170.244 78.833 170.367C78.833 170.368 78.8337 170.369 78.8337 170.371C78.8648 170.495 78.7913 170.621 78.6683 170.656C78.5425 170.68 78.4188 170.605 78.3821 170.482C78.351 170.356 78.4287 170.228 78.556 170.197ZM77.2309 164.703C77.351 164.672 77.474 164.743 77.5058 164.863C77.5072 164.868 77.5079 164.873 77.5093 164.878C77.5397 165 77.4655 165.124 77.3433 165.155C77.2168 165.186 77.0888 165.109 77.057 164.982V164.981C77.0252 164.861 77.0966 164.738 77.2168 164.706C77.221 164.706 77.2259 164.704 77.2309 164.703ZM75.9044 159.202C76.0323 159.175 76.1574 159.257 76.1843 159.385C76.2104 159.51 76.1334 159.633 76.009 159.663C75.8853 159.693 75.7617 159.616 75.732 159.493C75.732 159.492 75.7313 159.491 75.7313 159.489C75.6995 159.361 75.7772 159.233 75.9044 159.202ZM74.5794 153.709C74.7044 153.681 74.8281 153.759 74.8571 153.883C74.8868 154.009 74.809 154.134 74.6847 154.163C74.5617 154.192 74.4373 154.117 74.4062 153.995C74.3744 153.868 74.4522 153.74 74.5794 153.709C74.5787 153.709 74.5787 153.709 74.5794 153.709ZM75.1391 172.021C75.2663 171.994 75.3914 172.076 75.4175 172.204C75.4444 172.331 75.3624 172.456 75.2352 172.483C75.108 172.51 74.9829 172.428 74.9567 172.3C74.9299 172.173 75.0119 172.048 75.1391 172.021ZM74.0472 166.496C74.1758 166.476 74.2988 166.56 74.3278 166.687C74.3476 166.811 74.267 166.93 74.144 166.958C74.0168 166.985 73.8917 166.903 73.8649 166.776C73.8409 166.648 73.9214 166.525 74.0472 166.496ZM72.9638 160.977C73.0896 160.953 73.2105 161.035 73.2352 161.161C73.2593 161.287 73.1773 161.408 73.0515 161.432C72.9243 161.459 72.7992 161.377 72.7723 161.25C72.7533 161.122 72.8373 161.002 72.9638 160.977ZM71.872 155.451C71.9957 155.426 72.1165 155.506 72.142 155.629C72.142 155.631 72.1427 155.633 72.1427 155.635C72.166 155.76 72.084 155.881 71.9589 155.906C71.8381 155.934 71.7179 155.858 71.6904 155.737C71.689 155.732 71.6883 155.728 71.6876 155.723C71.6621 155.599 71.742 155.478 71.8656 155.453C71.8678 155.452 71.8699 155.452 71.872 155.451ZM70.7794 149.926C70.9031 149.9 71.024 149.98 71.0494 150.104C71.0501 150.106 71.0501 150.108 71.0501 150.11C71.0692 150.195 71.036 150.282 70.9667 150.334C70.9505 150.336 70.9434 150.345 70.9356 150.346C70.9165 150.365 70.8925 150.377 70.8664 150.381C70.7406 150.405 70.6197 150.323 70.595 150.197C70.5717 150.072 70.6537 149.95 70.7794 149.926ZM65.7273 157.924C65.8531 157.952 65.935 158.073 65.9131 158.201C65.8891 158.327 65.7676 158.409 65.6418 158.385C65.516 158.361 65.4333 158.24 65.4573 158.114C65.458 158.112 65.458 158.11 65.4587 158.108C65.4813 157.983 65.6015 157.9 65.7259 157.923C65.7259 157.924 65.7266 157.924 65.7273 157.924ZM66.8389 152.405C66.9661 152.432 67.0488 152.555 67.0248 152.682C66.9951 152.809 66.8686 152.888 66.7414 152.859C66.6198 152.83 66.5414 152.713 66.5619 152.59C66.5887 152.463 66.7117 152.381 66.8389 152.405ZM84.5205 165.005C84.6244 164.935 84.7657 164.962 84.8357 165.066C84.8378 165.069 84.8392 165.072 84.8413 165.075C84.912 165.18 84.8844 165.323 84.7791 165.395C84.6717 165.468 84.5254 165.44 84.4512 165.334C84.3791 165.227 84.4074 165.082 84.5141 165.009C84.5162 165.007 84.5184 165.006 84.5205 165.005ZM81.3983 160.318C81.5022 160.248 81.6435 160.275 81.7135 160.379C81.7156 160.382 81.717 160.385 81.7191 160.388C81.7898 160.493 81.7622 160.636 81.6569 160.708C81.5495 160.781 81.4032 160.753 81.329 160.647C81.2569 160.54 81.2852 160.395 81.3919 160.322C81.394 160.32 81.3962 160.319 81.3983 160.318ZM78.2768 155.63C78.3849 155.562 78.5277 155.593 78.5976 155.7C78.6683 155.805 78.6408 155.949 78.5355 156.02C78.428 156.093 78.2817 156.065 78.2075 155.959C78.1355 155.853 78.163 155.707 78.2704 155.634C78.2726 155.633 78.2747 155.631 78.2768 155.63ZM75.1546 150.942C75.2634 150.878 75.4034 150.909 75.4755 151.012C75.5461 151.118 75.5186 151.261 75.4133 151.333C75.3051 151.404 75.1603 151.377 75.0854 151.272C75.0133 151.163 75.0437 151.016 75.1525 150.944C75.1532 150.943 75.1539 150.943 75.1546 150.942ZM75.1688 162.351C75.2514 162.309 75.3532 162.342 75.3949 162.425C75.3977 162.431 75.3998 162.436 75.402 162.442C75.4408 162.531 75.3998 162.635 75.3108 162.673C75.2217 162.712 75.1179 162.671 75.079 162.582C75.0408 162.493 75.0811 162.391 75.1688 162.351ZM73.4981 158.445C73.585 158.405 73.6889 158.443 73.7292 158.53C73.7299 158.532 73.7306 158.534 73.732 158.536C73.7716 158.626 73.7313 158.73 73.6416 158.77C73.5518 158.809 73.4472 158.769 73.4077 158.679C73.3681 158.589 73.4084 158.485 73.4981 158.445ZM71.8275 154.54C71.9172 154.5 72.0218 154.541 72.0614 154.631C72.101 154.72 72.0607 154.825 71.9709 154.865C71.8812 154.904 71.7766 154.864 71.737 154.774C71.6996 154.684 71.7391 154.581 71.8275 154.54ZM70.1569 150.635C70.2487 150.599 70.3526 150.643 70.3915 150.733C70.4268 150.823 70.383 150.924 70.2932 150.959C70.2925 150.959 70.2918 150.96 70.2918 150.96C70.2063 150.998 70.1067 150.959 70.0685 150.874C70.0678 150.872 70.0671 150.87 70.0664 150.868C70.0261 150.78 70.0643 150.677 70.1512 150.637C70.1533 150.636 70.1547 150.636 70.1569 150.635ZM66.2467 161.972C66.3435 161.97 66.4234 162.046 66.4262 162.143C66.4241 162.239 66.3492 162.317 66.2545 162.324C66.1584 162.324 66.0785 162.248 66.075 162.152C66.0693 162.059 66.1407 161.978 66.234 161.973C66.2382 161.972 66.2424 161.972 66.2467 161.972ZM66.2 157.727C66.2933 157.726 66.3704 157.8 66.3711 157.893C66.3711 157.895 66.3711 157.897 66.3711 157.9C66.3739 157.996 66.2976 158.076 66.2008 158.079C66.2001 158.079 66.1993 158.079 66.1993 158.079C66.1018 158.076 66.0227 157.997 66.0191 157.9C66.0205 157.803 66.1004 157.726 66.1972 157.727C66.1979 157.727 66.1986 157.728 66.2 157.727ZM66.1435 153.476C66.2417 153.479 66.3202 153.558 66.3237 153.655C66.3258 153.748 66.2524 153.825 66.1598 153.827C66.1569 153.827 66.1541 153.827 66.1506 153.827C66.0573 153.833 65.9767 153.761 65.9718 153.668C65.9718 153.664 65.9718 153.659 65.9718 153.655C65.9689 153.558 66.0453 153.478 66.1421 153.476C66.1428 153.476 66.1435 153.476 66.1435 153.476ZM66.0969 149.23C66.1916 149.23 66.2686 149.307 66.2679 149.403V149.404C66.2735 149.497 66.2022 149.577 66.1089 149.582C66.1046 149.582 66.1004 149.582 66.0962 149.582C65.9993 149.585 65.9195 149.509 65.9167 149.412C65.9209 149.314 65.9993 149.235 66.0969 149.23ZM81.1114 155.754C81.1736 155.684 81.281 155.677 81.3509 155.74C81.3523 155.741 81.3545 155.742 81.3559 155.744C81.4266 155.808 81.4315 155.917 81.3679 155.988C81.3651 155.991 81.3615 155.994 81.358 155.998C81.2909 156.066 81.1806 156.067 81.1128 155.999C81.0449 155.931 81.0435 155.822 81.1114 155.754C81.1107 155.754 81.1107 155.754 81.1114 155.754ZM78.0712 152.783C78.1425 152.717 78.2521 152.716 78.3249 152.781C78.3927 152.853 78.3899 152.967 78.3178 153.035C78.2492 153.099 78.1432 153.1 78.0733 153.037C78.0075 152.965 78.0061 152.856 78.0712 152.783ZM75.0324 149.821C75.0974 149.75 75.2069 149.745 75.2776 149.81C75.2804 149.813 75.2832 149.816 75.2861 149.818C75.3518 149.887 75.3525 149.995 75.2875 150.064C75.2182 150.133 75.1066 150.132 75.038 150.062C74.9723 149.996 74.9702 149.89 75.0324 149.821ZM69.012 149.876C69.0544 149.849 69.1109 149.862 69.1378 149.905C69.1385 149.905 69.1385 149.906 69.1392 149.908C69.1682 149.953 69.1547 150.014 69.1095 150.043C69.0657 150.069 69.0077 150.055 68.9816 150.011C68.9526 149.966 68.9661 149.905 69.012 149.876C69.0113 149.876 69.0113 149.876 69.012 149.876ZM67.7732 156.313C67.841 156.268 67.9336 156.287 67.9788 156.355C67.9809 156.359 67.983 156.362 67.9852 156.366C68.0325 156.43 68.0184 156.521 67.9541 156.568C67.9498 156.571 67.9456 156.574 67.9407 156.576C67.8686 156.625 67.7703 156.605 67.7216 156.533C67.6742 156.463 67.6926 156.367 67.764 156.319C67.7668 156.318 67.7703 156.316 67.7732 156.313ZM72.031 149.556C72.0847 149.488 72.1844 149.476 72.2529 149.53C72.3179 149.581 72.3321 149.674 72.2861 149.742C72.2381 149.814 72.1405 149.834 72.0685 149.786C72.0663 149.785 72.0642 149.783 72.0621 149.782C71.9928 149.727 71.9787 149.628 72.031 149.556Z" fill="white"/>
<path d="M136.342 78.9896C136.342 78.9896 126.461 78.082 110.886 84.577C95.3117 91.072 90.4758 96.7881 81.6406 100.855C72.8055 104.923 49.9417 110.922 50.9367 136.427C50.9367 136.427 55.6822 152.632 104.7 149.963L145.03 87.3294C145.03 87.3294 138.705 86.3985 136.342 78.9896Z" fill="url(#paint5_linear_659_982)"/>
<path d="M144.149 90.566C144.149 90.566 132.364 111.942 129.525 126.065C126.686 140.188 127.036 145.345 135.454 154.438C142.025 161.535 148.307 167.602 148.307 167.602L127.807 203.878C127.807 203.878 114.666 198.095 111.17 186.528C107.238 173.519 101.518 171.423 95.8114 167.746C90.1048 164.068 79.5213 152.603 88.4335 132.5C97.3457 112.396 110.562 93.9595 136.614 78.0771" fill="#A1C3FC"/>
<path d="M152.695 79.9824C152.695 79.9824 145.777 87.3094 144.149 90.5657C144.149 90.5657 141.503 90.9728 138.044 83.6459L146.184 73.4697L152.695 79.9824Z" fill="url(#paint6_linear_659_982)"/>
<path d="M167.958 55.9656C167.958 55.9656 168.988 63.6198 171.417 66.3453C174.862 70.2102 174.206 70.618 169.992 72.4508C169.992 72.4508 160.73 88.3289 145.366 75.9722C145.366 75.9722 138.654 70.0088 139.062 66.5489C139.469 63.089 140.893 57.797 144.556 56.9827C148.219 56.1684 167.347 50.2672 167.958 55.9656Z" fill="#BE6361"/>
<path d="M140.621 49.0233C136.566 49.0233 133.279 45.7356 133.279 41.6801C133.279 37.6245 136.566 34.3369 140.621 34.3369C144.675 34.3369 147.962 37.6245 147.962 41.6801C147.962 45.7356 144.675 49.0233 140.621 49.0233Z" fill="#23286B"/>
<path d="M106.606 67.2345C108.18 64.0297 111.235 61.8103 114.77 61.3049C119.403 60.7112 127.845 64.4871 130.752 59.6177C130.953 59.188 131.155 58.7151 131.361 58.2098C131.418 58.0189 131.472 57.8231 131.518 57.6146C131.534 57.5206 131.595 57.44 131.682 57.3997C131.701 57.3517 131.718 57.31 131.737 57.2612C133.031 53.8748 135.356 50.9804 138.381 48.9843C134.355 48.8373 131.211 45.4537 131.358 41.4276C131.364 41.246 131.378 41.0643 131.398 40.8841C131.44 40.4522 132.12 40.448 132.078 40.8841C131.637 44.5129 134.221 47.8117 137.849 48.2527C138.433 48.3234 139.024 48.3163 139.607 48.2308C143.45 46.0559 148.69 44.7688 155.683 45.0247C169.89 45.5414 171.616 56.3543 169.766 63.354C169.583 62.8847 169.4 62.4655 169.251 61.9757L169.231 61.9213L168.802 60.3634L168.755 60.1797L167.749 56.5607C167.749 56.5607 161.281 57.785 157.786 61.9821C154.29 66.1792 149.216 64.4305 147.469 63.2063C145.721 61.9821 142.225 64.0835 143.803 67.7498C143.893 67.9604 143.993 68.1852 144.098 68.4212C147.789 74.5925 145.78 82.5895 139.61 86.282C138.575 86.9011 137.46 87.3733 136.296 87.6857C136.113 87.7295 135.929 87.6164 135.886 87.4341C135.844 87.2602 135.944 87.0835 136.115 87.0298C140.929 85.7299 144.49 81.6629 145.143 76.7193C144.087 79.7686 140.992 83.15 133.664 86.4629L108.664 68.8043C110.815 64.8567 115.261 62.7398 119.681 63.5597C125.459 64.4545 127.841 64.3061 129.738 61.4626C128.172 62.4465 126.344 62.9299 124.497 62.8486C121.688 62.8147 118.959 61.8252 116.146 61.8987C112.332 61.9602 108.875 64.1541 107.195 67.5787C106.99 67.9653 106.403 67.6218 106.606 67.2345Z" fill="#23286B"/>
<path d="M165.898 63.1066C166.97 64.7182 169.145 65.1564 170.756 64.0849C171.34 63.6968 171.794 63.1427 172.059 62.4938C172.264 62.0018 171.534 61.5884 171.326 62.0874C170.82 63.4713 169.288 64.1831 167.904 63.677C167.382 63.4862 166.933 63.137 166.619 62.679C166.31 62.2415 165.586 62.6656 165.898 63.1066Z" fill="#1C2868"/>
<path fill-rule="evenodd" clip-rule="evenodd" d="M419.298 81.5215C413.621 84.9432 408.043 86.5964 405.425 85.9215C398.86 84.2292 398.256 60.2106 403.336 50.7417C408.416 41.2728 434.532 37.1457 435.848 55.9065C436.305 62.4179 433.571 68.2288 429.531 72.9704L436.775 106.73H415.735L419.298 81.5215Z" fill="#915B3C"/>
<path fill-rule="evenodd" clip-rule="evenodd" d="M431.148 77.1928C433.789 65.4447 441.312 57.4364 440.163 52.1854C439.014 46.9345 434.038 45.6547 434.038 45.6547C434.038 45.6547 431.465 35.2445 417.439 36.7989C403.414 38.3534 394.853 44.1781 398.55 56.9949C401.948 56.9949 406.051 55.766 411.724 57.8716C414.424 58.8738 415.586 64.0872 415.586 64.0872H418.149C418.149 64.0872 421.881 57.9003 425.509 59.5401C429.136 61.18 427.158 67.5066 427.158 67.5066L428.421 77.1928H431.148Z" fill="#191847"/>
<path fill-rule="evenodd" clip-rule="evenodd" d="M495.511 216.312C503.257 216.312 509.537 222.592 509.537 230.339V310.991C509.537 318.738 503.257 325.018 495.511 325.018H394.695C386.948 325.018 380.668 318.738 380.668 310.991V230.339C380.668 222.592 386.948 216.312 394.695 216.312H495.511ZM481.484 240.859C483.421 240.859 484.991 242.428 484.991 244.365V296.965C484.991 298.901 483.421 300.471 481.484 300.471H408.722C406.785 300.471 405.215 298.901 405.215 296.965V244.365C405.215 242.428 406.785 240.859 408.722 240.859H481.484Z" fill="#C5CFD6"/>
<path fill-rule="evenodd" clip-rule="evenodd" d="M293.74 320.634C311.024 299.528 322.719 283.881 328.824 273.693C339.279 256.248 347.835 240.725 350.535 234.796C356.974 220.656 335.712 214.035 330.9 220.63C323.616 230.612 308.062 262.024 284.236 314.864L293.74 320.634Z" fill="#B28B67"/>
<path fill-rule="evenodd" clip-rule="evenodd" d="M329.158 314.498L361.325 233.527C368.205 218.766 334.981 209.064 329.925 215.933C318.446 231.528 291.163 293.049 287.743 297.696L329.158 314.498Z" fill="#252A65"/>
<path fill-rule="evenodd" clip-rule="evenodd" d="M414.829 298.259C408.563 289.119 385.772 258.369 373.358 245.646C369.791 241.99 366.31 238.481 363.018 235.211C353.233 225.491 333.747 241.828 343.514 250.681C367.838 272.729 403.329 302.494 406.294 305.148C410.45 308.867 418.767 304.004 414.829 298.259Z" fill="#915B3C"/>
<path fill-rule="evenodd" clip-rule="evenodd" d="M410.77 294.497C411.377 293.669 412.553 293.473 413.338 294.134C414.771 295.339 416.833 297.196 417.576 298.485C418.762 300.538 420.352 304.873 420.352 304.873C417.97 306.248 377.532 329.596 377.532 329.596C377.532 329.596 372.677 325.041 376.019 322.525C379.361 320.009 381.535 318.281 381.535 318.281L396.315 297.917C396.605 297.518 397.168 297.436 397.559 297.738L400.63 300.102C400.63 300.102 404.856 299.734 406.938 298.532C408.205 297.8 409.753 295.884 410.77 294.497Z" fill="#E4E4E4"/>
<path fill-rule="evenodd" clip-rule="evenodd" d="M298.745 316.5C299.685 316.087 300.801 316.505 301.151 317.47C301.79 319.23 302.646 321.869 302.646 323.357C302.646 325.728 301.856 330.278 301.856 330.278C299.105 330.278 252.411 330.278 252.411 330.278C252.411 330.278 250.484 323.906 254.636 323.398C258.789 322.89 261.535 322.48 261.535 322.48L284.517 312.235C284.968 312.034 285.496 312.245 285.684 312.702L287.161 316.285C287.161 316.285 291.006 318.079 293.409 318.079C294.872 318.079 297.171 317.193 298.745 316.5Z" fill="#E4E4E4"/>
<path fill-rule="evenodd" clip-rule="evenodd" d="M372.899 237.571C372.899 237.571 413.002 231.038 426.622 228.636C452.504 224.073 460.051 210.145 455.589 179.758H407.903C398.437 182.491 328.799 213.57 328.799 213.57C320.446 217.716 322.002 229.942 323.528 233.97C323.622 234.216 365.772 306.356 365.772 306.356L404.782 281.505L372.826 240.5C372.826 240.5 371.56 237.95 372.899 237.571Z" fill="#131A65"/>
<path fill-rule="evenodd" clip-rule="evenodd" d="M341.5 188.816L369.464 168.281L375.645 183.562L347.954 195.045C340.122 204.245 335.743 208.08 334.816 206.551C334.034 205.261 334.645 204.054 335.208 202.942C335.646 202.076 336.056 201.267 335.754 200.523C335.067 198.822 329.806 199.001 324.821 199.385C319.836 199.768 321.288 197.55 322.49 196.455C327.579 193.409 333.916 190.862 341.5 188.816ZM488.148 224.998C485.579 219.786 476.831 168.99 476.831 168.99L458.511 169.062C458.511 169.062 475.478 223.836 476.831 227.188C478.588 231.541 475.603 237.867 473.58 242.156C473.267 242.819 472.977 243.434 472.731 243.986C475.539 245.242 476.887 243.723 478.309 242.122C479.915 240.314 481.615 238.401 485.615 240.262C487.16 240.981 488.623 241.831 490.052 242.662C494.987 245.53 499.521 248.166 505.689 244.36C506.667 243.757 507.739 241.485 505.15 239.71C498.7 235.287 489.404 227.546 488.148 224.998Z" fill="#915B3C"/>
<path fill-rule="evenodd" clip-rule="evenodd" d="M424.769 92.1176L417.188 90.8174C389.062 115.114 377.51 161.792 343.034 186.519L351.332 196.804C411.141 189.399 425.965 132.464 424.769 92.1176Z" fill="#187BF3"/>
<path fill-rule="evenodd" clip-rule="evenodd" d="M457.814 187.382C457.814 187.382 412.222 187.382 390.74 187.382C387.675 187.382 388.253 182.957 388.696 180.723C393.809 154.949 413.77 127.166 413.77 90.4773L433.117 87.4434C449.12 113.181 454.654 144.868 457.814 187.382Z" fill="#DDE3E9"/>
<path fill-rule="evenodd" clip-rule="evenodd" d="M455.244 112.439C458.765 112.188 461.942 110.715 463.951 107.09C471.023 94.3303 468.469 87.3051 460.912 84.9958C456.756 83.726 452.848 84.5927 448.169 85.6302C444.34 86.4795 439.994 87.4432 434.574 87.4432C434.049 87.4432 433.571 87.4784 433.137 87.5457L426.718 87.912C426.718 87.912 400.652 176.254 412.34 205.792H465.356C468.371 213.032 471.327 219.35 474.112 224.202H488.497C490.045 174.161 471.1 135.656 455.244 112.439Z" fill="#3E8AF8"/>
<path fill-rule="evenodd" clip-rule="evenodd" d="M465.356 205.792C461.401 196.293 457.345 185.205 453.442 173.754C451.989 186.364 449.57 199.03 445.541 205.792H465.356Z" fill="black" fill-opacity="0.1"/>
</g>
</g>
</g>
</g>
<defs>
<linearGradient id="paint0_linear_659_982" x1="119.807" y1="312.542" x2="65.5485" y2="312.542" gradientUnits="userSpaceOnUse">
<stop stop-color="#FF702C"/>
<stop offset="1" stop-color="#BD705E"/>
</linearGradient>
<linearGradient id="paint1_linear_659_982" x1="79.3394" y1="312.53" x2="25.0807" y2="312.53" gradientUnits="userSpaceOnUse">
<stop stop-color="#FF702C"/>
<stop offset="1" stop-color="#BD705E"/>
</linearGradient>
<linearGradient id="paint2_linear_659_982" x1="96.9144" y1="279.711" x2="58.4861" y2="232.609" gradientUnits="userSpaceOnUse">
<stop stop-color="#23286B"/>
<stop offset="0.4316" stop-color="#1D225F"/>
<stop offset="1" stop-color="#151A4F"/>
</linearGradient>
<linearGradient id="paint3_linear_659_982" x1="131.36" y1="110.456" x2="103.885" y2="156.881" gradientUnits="userSpaceOnUse">
<stop stop-color="#A1C3FC"/>
<stop offset="0.6955" stop-color="#81AEF2"/>
<stop offset="1" stop-color="#78A9EF"/>
</linearGradient>
<linearGradient id="paint4_linear_659_982" x1="108.11" y1="204.653" x2="165.179" y2="153.008" gradientUnits="userSpaceOnUse">
<stop stop-color="#BE6361"/>
<stop offset="0.0326" stop-color="#BE6361"/>
<stop offset="0.6116" stop-color="#984C4A"/>
<stop offset="1" stop-color="#BE6361"/>
</linearGradient>
<linearGradient id="paint5_linear_659_982" x1="99.5234" y1="102.263" x2="95.1762" y2="150.091" gradientUnits="userSpaceOnUse">
<stop stop-color="#A1C3FC"/>
<stop offset="0.6955" stop-color="#81AEF2"/>
<stop offset="1" stop-color="#78A9EF"/>
</linearGradient>
<linearGradient id="paint6_linear_659_982" x1="139.948" y1="92.1115" x2="151.951" y2="75.3773" gradientUnits="userSpaceOnUse">
<stop stop-color="#BE6361"/>
<stop offset="0.0326" stop-color="#BE6361"/>
<stop offset="0.6116" stop-color="#984C4A"/>
<stop offset="1" stop-color="#BE6361"/>
</linearGradient>
<clipPath id="clip0_659_982">
<rect width="528" height="355" fill="white" transform="translate(0 0.560547)"/>
</clipPath>
<clipPath id="clip1_659_982">
<rect width="528" height="355" fill="white" transform="translate(0 0.560547)"/>
</clipPath>
<clipPath id="clip2_659_982">
<rect width="528" height="355" fill="white" transform="translate(0 0.560547)"/>
</clipPath>
</defs>
</svg>
